<svg width="315" height="354" viewBox="0 0 315 354" fill="none" xmlns="http://www.w3.org/2000/svg">
<path fill-rule="evenodd" clip-rule="evenodd" d="M160.403 347.723C179.969 341.828 197.766 331.233 212.223 316.874L159.55 264.557C150.445 273.562 137.927 279.122 124.11 279.122C96.2763 279.122 73.7117 256.557 73.7117 228.723C73.7117 200.888 96.2763 178.324 124.11 178.324L124.317 178.325V106.086C103.872 106.086 83.7455 111.094 65.7155 120.666C47.6855 130.238 32.31 144.079 20.9506 160.963C9.59445 177.847 2.60229 197.252 0.597493 217.46C-1.40402 237.668 1.6409 258.055 9.4632 276.815C17.2855 295.576 29.6489 312.13 45.451 325.012C61.2564 337.894 80.0115 346.706 100.063 350.667C120.114 354.629 140.841 353.617 160.403 347.723Z" fill="white"/>
<path d="M239.03 0.248782L239.03 181.207L314.867 257.044L267.35 304.559L171.833 209.041L171.832 0.248779L239.03 0.248782Z" fill="url(#paint0_linear_29_317)"/>
<defs>
<linearGradient id="paint0_linear_29_317" x1="244.91" y1="0.248781" x2="244.91" y2="296.004" gradientUnits="userSpaceOnUse">
<stop stop-color="white"/>
<stop offset="1" stop-color="#02E8C8"/>
</linearGradient>
</defs>
</svg>
