<svg width="315" height="353" viewBox="0 0 315 353" fill="none" xmlns="http://www.w3.org/2000/svg">
<path fill-rule="evenodd" clip-rule="evenodd" d="M160.403 347.474C179.969 341.58 197.766 330.984 212.223 316.625L159.55 264.308C150.445 273.313 137.927 278.873 124.11 278.873C96.2763 278.873 73.7117 256.309 73.7117 228.474C73.7117 200.64 96.2763 178.075 124.11 178.075L124.317 178.076V105.837C103.872 105.837 83.7455 110.845 65.7155 120.417C47.6855 129.989 32.31 143.83 20.9506 160.714C9.59445 177.598 2.60229 197.003 0.597493 217.211C-1.40402 237.419 1.6409 257.806 9.4632 276.567C17.2855 295.327 29.6489 311.881 45.451 324.763C61.2564 337.645 80.0115 346.457 100.063 350.418C120.114 354.38 140.841 353.368 160.403 347.474Z" fill="#1450F0"/>
<path d="M239.03 2.93733e-06L239.03 180.958L314.867 256.795L267.349 304.31L171.833 208.792L171.831 0L239.03 2.93733e-06Z" fill="url(#paint0_linear_29_313)"/>
<defs>
<linearGradient id="paint0_linear_29_313" x1="244.91" y1="1.72568e-06" x2="244.91" y2="295.756" gradientUnits="userSpaceOnUse">
<stop stop-color="#015AF2"/>
<stop offset="1" stop-color="#02E8C8"/>
</linearGradient>
</defs>
</svg>
